<?xml version="1.0" standalone="no"?>
<!DOCTYPE svg PUBLIC "-//W3C//DTD SVG 20010904//EN"
 "http://www.w3.org/TR/2001/REC-SVG-20010904/DTD/svg10.dtd">
<svg version="1.0" xmlns="http://www.w3.org/2000/svg"
 width="500.000000pt" height="500.000000pt" viewBox="0 0 500.000000 500.000000"
 preserveAspectRatio="xMidYMid meet">

<g transform="translate(0.000000,500.000000) scale(0.100000,-0.100000)"
fill="#000000" stroke="none">
<path d="M2280 4177 c-8 -7 -53 -55 -100 -107 -47 -52 -89 -100 -95 -106 -65
-70 -175 -193 -198 -220 -16 -19 -35 -34 -41 -34 -7 0 -52 33 -101 73 -50 40
-98 76 -108 80 -26 10 -67 -15 -111 -65 -21 -24 -79 -86 -129 -138 -375 -390
-593 -615 -659 -680 -43 -42 -78 -81 -78 -88 0 -7 11 -12 24 -12 24 0 50 18
256 171 301 223 527 391 540 402 8 7 31 23 50 37 19 13 37 27 40 30 17 20 72
50 92 50 21 0 121 -69 600 -410 l26 -19 27 34 c69 91 153 142 256 153 l64 7 5
41 c8 54 29 86 84 123 37 26 54 31 101 31 66 0 100 -16 143 -64 22 -26 33 -50
38 -86 l7 -51 246 3 c209 3 246 5 248 18 8 64 16 89 33 108 20 21 20 21 0 35
-12 8 -42 34 -68 58 -26 24 -90 82 -142 129 -52 47 -100 90 -106 95 -6 6 -46
42 -89 80 -43 39 -83 75 -89 81 -29 28 -68 46 -89 40 -12 -3 -67 -50 -121
-106 -54 -55 -102 -100 -106 -100 -4 0 -31 26 -60 58 -330 359 -333 362 -356
362 -11 0 -26 -6 -34 -13z"/>
<path d="M1605 3451 c-48 -36 -656 -490 -777 -579 -48 -35 -58 -48 -58 -72 l0
-30 780 0 780 0 0 -40 0 -40 -731 0 -730 0 3 -37 c2 -31 7 -39 26 -41 l22 -3
0 -524 0 -524 -22 -3 c-19 -2 -24 -10 -26 -40 l-3 -38 730 0 731 0 0 -35 0
-35 -787 -2 -788 -3 0 -110 0 -110 1610 -3 c1772 -2 1654 -6 1737 59 24 19 51
54 64 83 l24 51 0 832 c0 804 -1 835 -20 885 -42 111 -127 158 -284 158 l-94
0 -4 76 c-3 69 -6 79 -31 100 -37 32 -92 32 -132 0 -27 -22 -30 -30 -33 -100
l-4 -76 -328 0 -327 0 -5 72 c-5 65 -9 75 -37 100 -43 39 -97 39 -134 0 -24
-25 -28 -38 -30 -98 l-2 -69 -90 -6 c-99 -6 -158 -24 -203 -60 -40 -32 -80
-95 -88 -136 -3 -18 -9 -33 -13 -33 -4 0 -25 13 -47 28 -281 202 -621 442
-626 442 -2 0 -25 -18 -53 -39z m1344 -414 c2 -33 -31 -87 -60 -102 -45 -24
-103 -19 -138 10 -33 29 -56 84 -46 115 8 25 25 26 25 1 0 -11 12 -33 26 -50
52 -62 151 -31 169 52 6 28 8 30 15 12 5 -11 9 -28 9 -38z m677 -34 c18 -16
38 -23 68 -23 47 0 76 23 94 75 l10 30 9 -25 c14 -35 -1 -80 -37 -112 -36 -33
-105 -38 -146 -12 -44 30 -65 93 -47 140 5 15 9 11 15 -16 5 -19 20 -45 34
-57z m464 -925 c0 -674 -1 -694 -20 -726 -11 -18 -34 -41 -52 -52 -32 -19 -52
-20 -759 -20 l-726 0 -34 23 c-71 48 -68 14 -69 780 l0 687 830 0 830 0 0
-692z m-2730 322 l0 -120 -95 0 -95 0 0 120 0 120 95 0 95 0 0 -120z m370 0
l0 -120 -85 0 -85 0 0 120 0 120 85 0 85 0 0 -120z m390 0 l0 -120 -95 0 -95
0 0 120 0 120 95 0 95 0 0 -120z m-243 -301 c54 -26 116 -96 131 -147 7 -24
12 -109 12 -216 l0 -176 -45 0 -45 0 0 170 c0 219 -15 260 -107 291 -68 22
-141 -8 -174 -72 -17 -34 -19 -60 -19 -214 l0 -175 -50 0 -50 0 0 158 c0 207
18 276 89 340 69 63 178 80 258 41z m-519 -151 l3 -118 -96 0 -95 0 0 113 c0
63 3 117 7 121 4 4 46 5 93 4 l85 -3 3 -117z"/>
<path d="M2662 2608 c-8 -8 -12 -55 -12 -144 l0 -132 29 -12 c44 -18 259 -10
271 10 13 20 13 246 0 271 -10 17 -22 19 -143 19 -90 0 -137 -4 -145 -12z"/>
<path d="M3120 2601 c-13 -25 -13 -251 0 -271 7 -12 36 -16 130 -18 172 -5
170 -7 170 149 0 66 -5 129 -10 140 -10 17 -22 19 -145 19 -123 0 -135 -2
-145 -19z"/>
<path d="M3583 2613 c-10 -3 -13 -42 -13 -143 0 -127 2 -140 19 -150 25 -13
237 -13 262 0 17 10 19 22 19 143 0 90 -4 137 -12 145 -12 12 -248 17 -275 5z"/>
<path d="M2667 2172 c-14 -15 -17 -41 -17 -143 0 -84 4 -129 12 -137 8 -8 54
-12 139 -12 103 0 131 3 143 16 13 12 16 40 16 139 0 99 -3 127 -16 139 -12
13 -40 16 -138 16 -106 0 -125 -2 -139 -18z"/>
<path d="M3126 2174 c-13 -12 -16 -40 -16 -144 0 -118 2 -130 19 -140 11 -5
74 -10 140 -10 95 0 123 3 135 16 13 12 16 40 16 139 0 99 -3 127 -16 139 -23
23 -255 23 -278 0z"/>
<path d="M3588 2179 c-16 -9 -18 -27 -18 -148 0 -117 2 -140 16 -145 30 -12
259 -7 272 6 8 8 12 55 12 145 0 121 -2 133 -19 143 -25 13 -240 13 -263 -1z"/>
<path d="M2662 1738 c-8 -8 -12 -54 -12 -141 0 -112 2 -132 18 -143 12 -9 53
-13 138 -14 158 0 154 -5 154 161 0 84 -4 129 -12 137 -8 8 -54 12 -143 12
-89 0 -135 -4 -143 -12z"/>
<path d="M3122 1738 c-8 -8 -12 -53 -12 -138 0 -165 -4 -160 157 -160 156 0
153 -3 153 154 0 64 -5 126 -10 137 -10 17 -22 19 -143 19 -90 0 -137 -4 -145
-12z"/>
<path d="M3577 1743 c-13 -12 -8 -278 5 -291 17 -17 259 -17 276 0 13 13 18
252 6 282 -5 14 -27 16 -143 16 -76 0 -141 -3 -144 -7z"/>
</g>
</svg>
